<svg width="65" height="21" viewBox="0 0 65 21" fill="none" xmlns="http://www.w3.org/2000/svg">
<path fill-rule="evenodd" clip-rule="evenodd" d="M58.7632 13.8531C57.6067 16.5519 56.7201 17.5544 54.1368 18.4794C51.5536 19.4051 45.115 19.4822 42.5318 17.9399C39.9485 16.3976 37.5968 11.347 38.0207 7.95398C38.4449 4.56132 44.1513 3.44324 44.1513 3.44324C53.0959 2.13241 57.4139 3.75191 58.8019 4.9084C60.1899 6.06524 59.92 11.1542 58.7632 13.8531M23.0818 17.9395C20.4985 19.4819 14.06 19.4047 11.4767 18.4794C8.89379 17.554 8.00687 16.5515 6.85038 13.8527C5.69388 11.1539 5.42397 6.06456 6.81197 4.90806C8.19996 3.75157 12.5183 2.13207 21.4626 3.44324C21.4626 3.44324 27.1689 4.56132 27.5932 7.95398C28.0171 11.347 25.665 16.3976 23.0818 17.9395M64.2258 2.70827C55.5507 -0.749995 46.3687 0.800838 39.3397 2.53762C36.752 3.17706 34.0698 3.33649 34.043 3.33819L32.8097 3.35043L31.5855 3.33853C31.544 3.33649 28.8615 3.17672 26.2742 2.53728C12.8916 -0.769032 5.94476 0.891603 1.38779 2.70759C1.11515 2.81638 0.939061 3.0761 0.939061 3.36947L0.938721 6.28484C0.938721 6.49629 1.03187 6.6955 1.19402 6.83148C1.76683 7.31012 2.50519 7.97947 2.76831 8.4469C2.91381 8.70526 3.29557 9.66459 3.90713 11.2086C4.69852 13.2082 5.78261 15.9461 6.21468 16.6416C6.61344 17.2845 8.85436 20.5041 13.8108 20.7628C18.314 20.998 22.906 21.0293 25.235 18.6606C27.5619 16.2945 30.1812 9.92668 30.2074 9.86277C30.4069 9.30628 31.2068 8.25619 32.8069 8.34322C32.8685 8.33982 32.9297 8.33812 32.9892 8.33812C34.4621 8.33812 35.2148 9.32838 35.4109 9.87535C35.4323 9.92702 38.0516 16.2946 40.3786 18.6609C42.7079 21.0293 47.3005 20.9987 51.8028 20.7631C56.7585 20.5044 58.9998 17.2848 59.3989 16.6423C59.8309 15.9468 60.9147 13.2085 61.7064 11.2093C62.3176 9.66527 62.6997 8.7056 62.8452 8.44758C63.1084 7.97981 63.8467 7.3108 64.4199 6.83182C64.5813 6.69618 64.6745 6.49697 64.6745 6.28518V3.36981C64.6745 3.07644 64.4984 2.81672 64.2258 2.70827" fill="#3A4850"/>
<path d="M15.3348 9.3682C15.2685 9.30191 15.1607 9.30191 15.0944 9.3682L10.5052 13.9575C10.4389 14.0238 10.4389 14.1315 10.5052 14.1978C10.5385 14.2311 10.582 14.2478 10.6252 14.2478C10.6687 14.2478 10.7122 14.2311 10.7455 14.1978L15.3348 9.60854C15.4011 9.54225 15.4011 9.43449 15.3348 9.3682" stroke="#B0BDC5" stroke-width="0.55"/>
<path d="M21.8934 6.98856L12.8848 15.9971C12.8185 16.0634 12.8185 16.1712 12.8848 16.2375C12.9181 16.2708 12.9616 16.2874 13.0051 16.2874C13.0483 16.2874 13.0918 16.2708 13.1251 16.2375L22.1337 7.2289C22.2 7.16261 22.2 7.05485 22.1337 6.98856C22.0674 6.92227 21.9597 6.92227 21.8934 6.98856" stroke="#B0BDC5" stroke-width="0.55"/>
<path d="M48.3095 9.3682C48.2432 9.30191 48.1355 9.30191 48.0692 9.3682L43.4799 13.9575C43.4136 14.0238 43.4136 14.1315 43.4799 14.1978C43.5132 14.2311 43.5567 14.2478 43.5999 14.2478C43.6434 14.2478 43.6869 14.2311 43.7202 14.1978L48.3095 9.60854C48.3758 9.54225 48.3758 9.43449 48.3095 9.3682" stroke="#B0BDC5" stroke-width="0.55"/>
<path d="M54.8681 6.98856L45.8595 15.9971C45.7932 16.0634 45.7932 16.1712 45.8595 16.2375C45.8928 16.2708 45.9364 16.2874 45.9799 16.2874C46.023 16.2874 46.0666 16.2708 46.0999 16.2375L55.1084 7.2289C55.1747 7.16261 55.1747 7.05485 55.1084 6.98856C55.0421 6.92227 54.9344 6.92227 54.8681 6.98856" stroke="#B0BDC5" stroke-width="0.55"/>
</svg>
