<svg width="65" height="22" viewBox="0 0 65 22" fill="none" xmlns="http://www.w3.org/2000/svg">
<path fill-rule="evenodd" clip-rule="evenodd" d="M38.5 4.94999L36.967 7.1976V9.57722L37.7335 11.3505L38.5 13.7019L39.5 15.4L41.6243 18.7252L46.8966 19.9893L54.0944 19.4021L57.1336 17.4942L59.7403 13.7019C59.7403 13.7019 60.5593 9.42357 60.5593 8.90553C60.5593 8.38749 59.7403 5.59156 59.7403 5.59156C59.7403 5.59156 58.4189 3.81266 57.7763 3.81266C57.1336 3.81266 52.2484 3.21387 51.3661 3.21387C50.4839 3.21387 44.153 3.21407 44.153 3.21407L41.2397 4.42469L38.5 4.94999Z" fill="url(#paint0_linear_1_1953)"/>
<path fill-rule="evenodd" clip-rule="evenodd" d="M6.59993 4.94999L5.06702 7.1976V9.57722L5.83347 11.3505L6.59993 13.7019V15.6798L9.72429 18.7252L14.9966 19.9893L22.1944 19.4021L24.8547 17.2995L26.9088 14.5065C26.9088 14.5065 28.4095 8.60018 28.4095 8.08214C28.4095 7.5641 26.9088 5.35335 26.9088 5.35335C26.9088 5.35335 25.4973 4.04254 24.8547 4.04254C24.212 4.04254 20.3483 3.21387 19.4661 3.21387C18.5839 3.21387 12.253 3.21407 12.253 3.21407L8.18252 3.21387L6.59993 4.94999Z" fill="url(#paint1_linear_1_1953)"/>
<path fill-rule="evenodd" clip-rule="evenodd" d="M58.7632 14.1118C57.6067 16.8107 56.7201 17.8132 54.1368 18.7382C51.5536 19.6638 45.115 19.741 42.5318 18.1987C39.9485 16.6563 37.5968 11.6058 38.0207 8.21277C38.4449 4.82011 44.1513 3.70203 44.1513 3.70203C53.0959 2.39119 57.4139 4.0107 58.8019 5.16719C60.1899 6.32403 59.92 11.413 58.7632 14.1118ZM23.0818 18.1983C20.4985 19.7407 14.06 19.6635 11.4767 18.7382C8.89379 17.8128 8.00688 16.8103 6.85038 14.1115C5.69388 11.4127 5.42397 6.32335 6.81196 5.16685C8.19996 4.01036 12.5183 2.39085 21.4626 3.70203C21.4626 3.70203 27.1689 4.82011 27.5932 8.21277C28.0171 11.6058 25.665 16.6563 23.0818 18.1983ZM64.2258 2.96706C55.5507 -0.491206 46.3687 1.05963 39.3397 2.79641C36.752 3.43585 34.0698 3.59528 34.043 3.59698L32.8097 3.60922L31.5855 3.59732C31.544 3.59528 28.8615 3.43551 26.2742 2.79607C12.8916 -0.510243 5.94476 1.15039 1.38779 2.96638C1.11515 3.07517 0.939061 3.33488 0.939061 3.62826L0.938721 6.54363C0.938721 6.75508 1.03187 6.95429 1.19402 7.09027C1.76683 7.56891 2.50519 8.23826 2.76831 8.70569C2.91381 8.96405 3.29557 9.92338 3.90713 11.4674C4.69852 13.467 5.78261 16.2049 6.21468 16.9004C6.61344 17.5433 8.85436 20.7629 13.8108 21.0216C18.314 21.2568 22.906 21.2881 25.235 18.9194C27.5619 16.5533 30.1812 10.1855 30.2074 10.1216C30.4069 9.56507 31.2068 8.51498 32.8069 8.60201C32.8685 8.59861 32.9297 8.59691 32.9892 8.59691C34.4621 8.59691 35.2148 9.58717 35.4109 10.1341C35.4323 10.1858 38.0516 16.5533 40.3786 18.9197C42.7079 21.2881 47.3005 21.2575 51.8028 21.0219C56.7585 20.7632 58.9998 17.5436 59.3989 16.9011C59.8309 16.2056 60.9147 13.4673 61.7064 11.4681C62.3176 9.92406 62.6997 8.96439 62.8452 8.70637C63.1084 8.2386 63.8467 7.56959 64.4199 7.09061C64.5813 6.95497 64.6745 6.75576 64.6745 6.54397V3.6286C64.6745 3.33522 64.4984 3.07551 64.2258 2.96706Z" fill="#3A4850"/>
<path d="M15.3348 9.62699C15.2685 9.5607 15.1607 9.5607 15.0944 9.62699L10.5052 14.2163C10.4389 14.2825 10.4389 14.3903 10.5052 14.4566C10.5385 14.4899 10.582 14.5066 10.6252 14.5066C10.6687 14.5066 10.7122 14.4899 10.7455 14.4566L15.3348 9.86733C15.4011 9.80104 15.4011 9.69328 15.3348 9.62699" stroke="white" stroke-width="0.55"/>
<path d="M21.8934 7.24735L12.8848 16.2559C12.8185 16.3222 12.8185 16.43 12.8848 16.4963C12.9181 16.5296 12.9616 16.5462 13.0051 16.5462C13.0483 16.5462 13.0918 16.5296 13.1251 16.4963L22.1337 7.48769C22.2 7.4214 22.2 7.31364 22.1337 7.24735C22.0674 7.18106 21.9597 7.18106 21.8934 7.24735" stroke="white" stroke-width="0.55"/>
<path d="M48.3095 9.62699C48.2432 9.5607 48.1355 9.5607 48.0692 9.62699L43.4799 14.2163C43.4136 14.2825 43.4136 14.3903 43.4799 14.4566C43.5132 14.4899 43.5567 14.5066 43.5999 14.5066C43.6434 14.5066 43.6869 14.4899 43.7202 14.4566L48.3095 9.86733C48.3758 9.80104 48.3758 9.69328 48.3095 9.62699" stroke="white" stroke-width="0.55"/>
<path d="M54.8681 7.24735L45.8595 16.2559C45.7932 16.3222 45.7932 16.43 45.8595 16.4963C45.8928 16.5296 45.9364 16.5462 45.9799 16.5462C46.023 16.5462 46.0666 16.5296 46.0999 16.4963L55.1084 7.48769C55.1747 7.4214 55.1747 7.31364 55.1084 7.24735C55.0421 7.18106 54.9344 7.18106 54.8681 7.24735" stroke="white" stroke-width="0.55"/>
<defs>
<linearGradient id="paint0_linear_1_1953" x1="37.0147" y1="3.21387" x2="37.0147" y2="19.9216" gradientUnits="userSpaceOnUse">
<stop stop-color="#89959C" stop-opacity="0.628551"/>
<stop offset="1" stop-color="#3A4850" stop-opacity="0.821351"/>
</linearGradient>
<linearGradient id="paint1_linear_1_1953" x1="5.11415" y1="3.21387" x2="5.11415" y2="19.9216" gradientUnits="userSpaceOnUse">
<stop stop-color="#89959C" stop-opacity="0.628551"/>
<stop offset="1" stop-color="#3A4850" stop-opacity="0.884943"/>
</linearGradient>
</defs>
</svg>
