<svg width="318" height="118" viewBox="0 0 318 118" fill="none" xmlns="http://www.w3.org/2000/svg">
<g opacity="0.834333">
<path fill-rule="evenodd" clip-rule="evenodd" d="M196.976 22.5962C196.126 23.3395 194.91 23.7111 193.328 23.7111C191.954 23.7111 190.845 23.4887 190 23.0439V20.7888C190.445 21.0253 190.963 21.2181 191.554 21.3673C192.145 21.5166 192.706 21.5912 193.235 21.5912C194.828 21.5912 195.625 20.938 195.625 19.6317C195.625 18.3873 194.8 17.7652 193.15 17.7652C192.852 17.7652 192.523 17.7947 192.162 17.8538C191.802 17.913 191.509 17.9763 191.284 18.0439L190.245 17.4864L190.709 11.1942H197.407V13.407H192.998L192.77 15.831L193.066 15.7719C193.409 15.6931 193.834 15.6537 194.341 15.6537C195.535 15.6537 196.485 15.9887 197.192 16.6587C197.898 17.3288 198.252 18.2466 198.252 19.4121C198.252 20.7916 197.827 21.853 196.976 22.5962ZM206.174 11.1942V23.5422H203.564V16.3969L203.59 15.2229L203.632 13.9391C203.198 14.3727 202.897 14.657 202.728 14.7922L201.309 15.9324L200.051 14.3614L204.029 11.1942H206.174Z" fill="#2196F3"/>
<path fill-rule="evenodd" clip-rule="evenodd" d="M234.708 23.7111C236.026 23.7111 237.056 23.3268 237.8 22.5582C238.543 21.7897 238.914 20.7466 238.914 19.429C238.914 18.2072 238.602 17.25 237.977 16.5574C237.352 15.8648 236.488 15.5186 235.384 15.5186C234.157 15.5186 233.264 15.9972 232.707 16.9544H232.597C232.648 15.9803 232.814 15.2286 233.095 14.6993C233.377 14.17 233.8 13.7703 234.366 13.5C234.932 13.2297 235.663 13.0946 236.558 13.0946C237.048 13.0946 237.543 13.1509 238.045 13.2635V11.1773C237.645 11.0929 237.093 11.0507 236.389 11.0507C234.328 11.0507 232.781 11.6475 231.748 12.8412C230.715 14.0349 230.198 15.8536 230.198 18.2973C230.198 19.4403 230.383 20.4172 230.751 21.228C231.12 22.0388 231.644 22.6554 232.322 23.0777C233.001 23.5 233.796 23.7111 234.708 23.7111ZM226.862 23.5422V11.1942H224.717L220.739 14.3615L221.997 15.9324L223.416 14.7922C223.585 14.6571 223.886 14.3727 224.32 13.9392L224.278 15.223L224.252 16.3969V23.5422H226.862ZM233.319 20.9324C233.671 21.3941 234.117 21.625 234.658 21.625C235.215 21.625 235.643 21.4378 235.942 21.0633C236.24 20.6889 236.389 20.1554 236.389 19.4628C236.389 18.8603 236.25 18.386 235.971 18.0397C235.692 17.6934 235.271 17.5202 234.708 17.5202C234.179 17.5202 233.727 17.692 233.353 18.0354C232.978 18.3789 232.791 18.7787 232.791 19.2348C232.791 19.9048 232.967 20.4707 233.319 20.9324Z" fill="#89959C"/>
<path fill-rule="evenodd" clip-rule="evenodd" d="M275.026 23.7111C276.495 23.7111 277.583 23.1931 278.29 22.1571C278.997 21.121 279.35 19.5248 279.35 17.3682C279.35 15.2849 278.985 13.7027 278.256 12.6216C277.527 11.5405 276.45 11 275.026 11C273.562 11 272.478 11.5166 271.774 12.5498C271.07 13.583 270.718 15.1892 270.718 17.3682C270.718 19.4572 271.08 21.0366 271.804 22.1064C272.527 23.1762 273.601 23.7111 275.026 23.7111ZM257.492 23.5422V11.1943H255.347L251.369 14.3615L252.627 15.9324L254.046 14.7922C254.215 14.6571 254.516 14.3727 254.95 13.9392L254.908 15.223L254.882 16.397V23.5422H257.492ZM268.337 23.5422V20.9831H269.823V18.9561H268.337V11.1943H265.929L260.516 19.1672V20.9831H265.786V23.5422H268.337ZM262.813 18.9561H265.786V16.8615C265.786 16.5124 265.8 16.0056 265.828 15.3412C265.856 14.6768 265.879 14.2911 265.896 14.1841H265.828C265.62 14.6458 265.369 15.0963 265.076 15.5355L262.813 18.9561ZM273.704 20.6241C273.966 21.2801 274.406 21.6081 275.026 21.6081C275.634 21.6081 276.073 21.2759 276.343 20.6115C276.614 19.9471 276.749 18.866 276.749 17.3682C276.749 15.8536 276.612 14.7655 276.339 14.1039C276.066 13.4423 275.628 13.1115 275.026 13.1115C274.412 13.1115 273.973 13.4423 273.708 14.1039C273.444 14.7655 273.311 15.8536 273.311 17.3682C273.311 18.8829 273.442 19.9682 273.704 20.6241Z" fill="#89959C"/>
<path d="M216.577 19.9611V17.8496H212.042V19.9611H216.577Z" fill="#89959C"/>
<path d="M247.139 19.9611V17.8496H242.603V19.9611H247.139Z" fill="#89959C"/>
</g>
<path fill-rule="evenodd" clip-rule="evenodd" d="M318 25.7632L318 4.87112C318 3.766 317.127 2.86526 316.022 2.84078C295.424 2.39653 120.371 -1.31168 97.8294 0.49102C73.8708 2.40509 68.1217 5.03878 58.5388 13.1809C50.0762 20.3697 10.2321 74.8976 1.02505 85.2182C-0.328033 86.7333 -0.336609 88.9962 0.96994 90.5517C2.09158 91.8881 16.6926 101.4 22.1233 94.5353C26.5413 88.9509 43.6855 56.2244 50.1534 46.6455C56.6212 37.0678 66.9241 14.3204 104.777 21.5055C122.984 24.138 163.961 32.0403 172.342 32.0403C180.131 32.0403 299.25 28.3174 316.04 27.7911C317.136 27.7569 318 26.8598 318 25.7632Z" fill="#89959C"/>
<path d="M80.1572 58V47.292H83.0503V55.6636H87.1738V58H80.1572ZM95.2451 58H88.8877V47.292H95.2451V49.6138H91.7808V51.2983H94.9888V53.6201H91.7808V55.6416H95.2451V58ZM107.315 58H103.521L99.6104 50.4561H99.5444C99.6372 51.6426 99.6836 52.5483 99.6836 53.1733V58H97.1201V47.292H100.899L104.796 54.7334H104.84C104.771 53.6543 104.737 52.7876 104.737 52.1333V47.292H107.315V58ZM116.632 54.748C116.632 55.4121 116.463 56.0029 116.126 56.5205C115.79 57.0332 115.304 57.4336 114.669 57.7217C114.034 58.0049 113.29 58.1465 112.435 58.1465C111.722 58.1465 111.124 58.0977 110.641 58C110.157 57.8975 109.654 57.7217 109.132 57.4727V54.8945C109.684 55.1777 110.257 55.3999 110.853 55.561C111.449 55.7173 111.996 55.7954 112.494 55.7954C112.923 55.7954 113.238 55.7222 113.438 55.5757C113.639 55.4243 113.739 55.2314 113.739 54.9971C113.739 54.8506 113.697 54.7236 113.614 54.6162C113.536 54.5039 113.407 54.3916 113.226 54.2793C113.05 54.167 112.577 53.9375 111.805 53.5908C111.107 53.2734 110.582 52.9658 110.23 52.668C109.884 52.3701 109.625 52.0283 109.454 51.6426C109.288 51.2568 109.205 50.8003 109.205 50.2729C109.205 49.2866 109.564 48.5176 110.282 47.9658C111 47.4141 111.986 47.1382 113.241 47.1382C114.349 47.1382 115.479 47.3945 116.632 47.9072L115.746 50.1411C114.745 49.6821 113.88 49.4526 113.153 49.4526C112.777 49.4526 112.503 49.5186 112.333 49.6504C112.162 49.7822 112.076 49.9458 112.076 50.1411C112.076 50.3511 112.184 50.5391 112.398 50.7051C112.618 50.8711 113.209 51.1738 114.171 51.6133C115.094 52.0283 115.733 52.4751 116.09 52.9536C116.451 53.4272 116.632 54.0254 116.632 54.748ZM133.749 58H130.328L129.303 53.3345C129.254 53.1392 129.176 52.751 129.068 52.1699C128.966 51.5889 128.89 51.103 128.841 50.7124C128.802 51.0298 128.739 51.4253 128.651 51.8989C128.563 52.3677 128.475 52.7998 128.387 53.1953C128.304 53.5908 127.95 55.1924 127.325 58H123.905L121.253 47.292H124.044L125.208 52.6606C125.472 53.8472 125.653 54.792 125.75 55.4951C125.814 54.9971 125.926 54.3208 126.087 53.4663C126.253 52.6118 126.407 51.9038 126.549 51.3423L127.494 47.292H130.174L131.09 51.3423C131.246 51.9917 131.405 52.7412 131.566 53.5908C131.727 54.4404 131.834 55.0752 131.888 55.4951C131.952 54.9531 132.125 54.0132 132.408 52.6753L133.595 47.292H136.385L133.749 58ZM137.77 58V47.292H140.677V58H137.77ZM152.088 52.4189C152.088 54.2061 151.595 55.583 150.609 56.5498C149.627 57.5166 148.246 58 146.463 58H142.999V47.292H146.705C148.424 47.292 149.75 47.7314 150.682 48.6104C151.62 49.4893 152.088 50.7588 152.088 52.4189ZM149.085 52.5215C149.085 51.54 148.89 50.8125 148.5 50.3389C148.114 49.8652 147.525 49.6284 146.734 49.6284H145.892V55.627H146.537C147.416 55.627 148.06 55.373 148.47 54.8652C148.88 54.3525 149.085 53.5713 149.085 52.5215ZM158.739 58H155.846V49.6577H153.231V47.292H161.346V49.6577H158.739V58ZM172.054 58H169.146V53.6348H165.785V58H162.877V47.292H165.785V51.2617H169.146V47.292H172.054V58Z" fill="#0F0F0F"/>
<path d="M80.4722 75.292H83.4971C84.918 75.292 85.9458 75.5044 86.5806 75.9292C87.2153 76.354 87.5327 77.0254 87.5327 77.9434C87.5327 78.5781 87.3545 79.103 86.998 79.5181C86.6465 79.9282 86.1313 80.1943 85.4526 80.3164V80.3896C87.0786 80.668 87.8916 81.5225 87.8916 82.9531C87.8916 83.9102 87.5669 84.6572 86.9175 85.1943C86.2729 85.7314 85.3696 86 84.2075 86H80.4722V75.292ZM81.7173 79.877H83.7681C84.647 79.877 85.2793 79.7402 85.665 79.4668C86.0508 79.1885 86.2437 78.7222 86.2437 78.0679C86.2437 77.4673 86.0288 77.0352 85.5991 76.7715C85.1694 76.5029 84.4858 76.3687 83.5483 76.3687H81.7173V79.877ZM81.7173 80.9316V84.938H83.9512C84.8154 84.938 85.4648 84.772 85.8994 84.4399C86.3389 84.103 86.5586 83.5781 86.5586 82.8652C86.5586 82.2012 86.334 81.7129 85.8848 81.4004C85.4404 81.0879 84.7617 80.9316 83.8486 80.9316H81.7173ZM91.4438 81.5469V86H90.1987V75.292H93.1357C94.4492 75.292 95.4185 75.5435 96.0435 76.0464C96.6733 76.5493 96.9883 77.3062 96.9883 78.3169C96.9883 79.7329 96.2705 80.6899 94.835 81.188L97.7427 86H96.2705L93.6777 81.5469H91.4438ZM91.4438 80.4775H93.1504C94.0293 80.4775 94.6738 80.3042 95.084 79.9575C95.4941 79.606 95.6992 79.0811 95.6992 78.3828C95.6992 77.6748 95.4893 77.1646 95.0693 76.8521C94.6543 76.5396 93.9854 76.3833 93.0625 76.3833H91.4438V80.4775ZM99.4712 86V75.292H100.716V86H99.4712ZM112.208 80.5435C112.208 82.311 111.727 83.6636 110.765 84.6011C109.808 85.5337 108.429 86 106.627 86H103.661V75.292H106.942C108.607 75.292 109.901 75.7534 110.824 76.6763C111.747 77.5991 112.208 78.8882 112.208 80.5435ZM110.89 80.5874C110.89 79.1909 110.538 78.1387 109.835 77.4307C109.137 76.7227 108.097 76.3687 106.715 76.3687H104.906V84.9233H106.422C107.906 84.9233 109.022 84.5596 109.769 83.832C110.516 83.0996 110.89 82.0181 110.89 80.5874ZM119.312 80.3896H122.953V85.5972C122.386 85.7778 121.81 85.9146 121.224 86.0073C120.638 86.1001 119.959 86.1465 119.188 86.1465C117.567 86.1465 116.305 85.6655 115.401 84.7036C114.498 83.7368 114.046 82.3843 114.046 80.646C114.046 79.5327 114.269 78.5586 114.713 77.7236C115.162 76.8838 115.807 76.2441 116.646 75.8047C117.486 75.3604 118.47 75.1382 119.598 75.1382C120.741 75.1382 121.805 75.3481 122.792 75.7681L122.308 76.8667C121.341 76.4565 120.411 76.2515 119.518 76.2515C118.214 76.2515 117.196 76.6396 116.463 77.416C115.731 78.1924 115.365 79.269 115.365 80.646C115.365 82.0913 115.716 83.1875 116.419 83.9346C117.127 84.6816 118.165 85.0552 119.532 85.0552C120.274 85.0552 121 84.9697 121.708 84.7988V81.5029H119.312V80.3896ZM131.5 86H125.531V75.292H131.5V76.3979H126.776V79.8477H131.214V80.9463H126.776V84.8867H131.5V86ZM147.123 86H145.892L143.731 78.8296C143.629 78.5122 143.514 78.1118 143.387 77.6284C143.26 77.145 143.194 76.8545 143.189 76.7568C143.082 77.4014 142.911 78.1069 142.677 78.8735L140.582 86H139.352L136.502 75.292H137.821L139.513 81.9058C139.747 82.8335 139.918 83.6733 140.025 84.4253C140.157 83.5317 140.353 82.6577 140.611 81.8032L142.53 75.292H143.849L145.863 81.8618C146.097 82.6187 146.295 83.4731 146.456 84.4253C146.549 83.7319 146.725 82.8872 146.983 81.8911L148.668 75.292H149.986L147.123 86ZM151.664 86V75.292H152.909V86H151.664ZM164.4 80.5435C164.4 82.311 163.919 83.6636 162.958 84.6011C162 85.5337 160.621 86 158.819 86H155.853V75.292H159.134C160.799 75.292 162.093 75.7534 163.016 76.6763C163.939 77.5991 164.4 78.8882 164.4 80.5435ZM163.082 80.5874C163.082 79.1909 162.73 78.1387 162.027 77.4307C161.329 76.7227 160.289 76.3687 158.907 76.3687H157.098V84.9233H158.614C160.099 84.9233 161.214 84.5596 161.961 83.832C162.708 83.0996 163.082 82.0181 163.082 80.5874ZM170.091 86H168.846V76.3979H165.455V75.292H173.482V76.3979H170.091V86ZM183.231 86H181.986V80.9609H176.346V86H175.101V75.292H176.346V79.8477H181.986V75.292H183.231V86Z" fill="#B0BDC5"/>
<path d="M83.7681 114H82.5229V104.398H79.1318V103.292H87.1592V104.398H83.7681V114ZM94.7471 114H88.7778V103.292H94.7471V104.398H90.0229V107.848H94.4614V108.946H90.0229V112.887H94.7471V114ZM101.866 114L98.2334 104.508H98.1748C98.2432 105.26 98.2773 106.153 98.2773 107.188V114H97.1274V103.292H99.0024L102.394 112.125H102.452L105.873 103.292H107.733V114H106.488V107.101C106.488 106.31 106.522 105.45 106.59 104.522H106.532L102.87 114H101.866ZM117.467 106.412C117.467 107.496 117.096 108.331 116.354 108.917C115.616 109.498 114.559 109.789 113.182 109.789H111.922V114H110.677V103.292H113.453C116.129 103.292 117.467 104.332 117.467 106.412ZM111.922 108.719H113.043C114.146 108.719 114.945 108.541 115.438 108.185C115.931 107.828 116.178 107.257 116.178 106.471C116.178 105.763 115.946 105.235 115.482 104.889C115.018 104.542 114.295 104.369 113.314 104.369H111.922V108.719ZM119.715 114V103.292H120.96V112.872H125.685V114H119.715ZM133.478 114H127.508V103.292H133.478V104.398H128.753V107.848H133.192V108.946H128.753V112.887H133.478V114ZM139.754 114V103.292H141V112.872H145.724V114H139.754ZM153.517 114H147.547V103.292H153.517V104.398H148.792V107.848H153.231V108.946H148.792V112.887H153.517V114ZM164.261 114H162.84L156.988 105.013H156.93C157.008 106.068 157.047 107.035 157.047 107.914V114H155.897V103.292H157.303L163.141 112.242H163.199C163.189 112.11 163.167 111.688 163.133 110.975C163.099 110.257 163.087 109.745 163.097 109.437V103.292H164.261V114ZM171.915 108.39H175.555V113.597C174.989 113.778 174.413 113.915 173.827 114.007C173.241 114.1 172.562 114.146 171.791 114.146C170.169 114.146 168.907 113.666 168.004 112.704C167.101 111.737 166.649 110.384 166.649 108.646C166.649 107.533 166.871 106.559 167.315 105.724C167.765 104.884 168.409 104.244 169.249 103.805C170.089 103.36 171.073 103.138 172.201 103.138C173.343 103.138 174.408 103.348 175.394 103.768L174.911 104.867C173.944 104.457 173.014 104.251 172.12 104.251C170.816 104.251 169.798 104.64 169.066 105.416C168.333 106.192 167.967 107.269 167.967 108.646C167.967 110.091 168.319 111.188 169.022 111.935C169.73 112.682 170.768 113.055 172.135 113.055C172.877 113.055 173.602 112.97 174.31 112.799V109.503H171.915V108.39ZM186.263 114H185.018V108.961H179.378V114H178.133V103.292H179.378V107.848H185.018V103.292H186.263V114ZM192.503 114H191.258V104.398H187.867V103.292H195.895V104.398H192.503V114Z" fill="#B0BDC5"/>
<mask id="mask0_1_2169" style="mask-type:alpha" maskUnits="userSpaceOnUse" x="192" y="27" width="11" height="2">
<rect x="192" y="27" width="11" height="2" rx="1" fill="white"/>
</mask>
<g mask="url(#mask0_1_2169)">
<path d="M181 54.5H198.051V27" stroke="#425A60" stroke-dasharray="3"/>
</g>
<path d="M182.554 54.5H198.051V27" stroke="#425A60" stroke-dasharray="3"/>
<rect x="196" y="54" width="2" height="1" fill="#425A60"/>
<path d="M197.215 82.5H234.791V27.1914" stroke="#B0BDC5" stroke-dasharray="2.9"/>
<mask id="mask1_1_2169" style="mask-type:alpha" maskUnits="userSpaceOnUse" x="228" y="27" width="11" height="2">
<rect x="228" y="27" width="11" height="2" rx="1" fill="white"/>
</mask>
<g mask="url(#mask1_1_2169)">
<path d="M197.215 82.5H234.791V27.1914" stroke="#B0BDC5" stroke-dasharray="3"/>
</g>
<rect x="232" y="82" width="3.3" height="1" fill="#B0BDC5"/>
<path d="M208.159 111.5H270.656V27.1914" stroke="#B0BDC5" stroke-dasharray="3"/>
</svg>
