<svg width="104" height="49" viewBox="0 0 104 49" fill="none" xmlns="http://www.w3.org/2000/svg">
<path fill-rule="evenodd" clip-rule="evenodd" d="M51.7776 32.8322H52.5485V0.546829H51.7776V32.8322Z" fill="#3A4850"/>
<path fill-rule="evenodd" clip-rule="evenodd" d="M77.2214 25.9216L70.284 15.2727L75.6796 7.45766H74.6L69.7599 14.4679L65.193 7.45766H61.4927L67.8557 17.2259L61.8521 25.9216H62.9311L68.3799 18.0307L73.5199 25.9216H77.2214Z" fill="#3A4850"/>
<path fill-rule="evenodd" clip-rule="evenodd" d="M30.8212 20.1711L33.9337 12.0084L37.0137 20.1711H30.8212ZM39.1835 25.9217H42.473L35.332 6.99403H34.8522L27.635 25.9217H28.6284L30.5196 20.9618H37.3118L39.1835 25.9217Z" fill="#3A4850"/>
<path fill-rule="evenodd" clip-rule="evenodd" d="M3.94384 40.5764H3.75495L0.919922 48.0124H1.31068L2.05382 46.064H4.7218L5.45668 48.0124H6.74995L3.94443 40.5764H3.94384ZM3.39489 42.5461L4.60493 45.7536H2.17187L3.39489 42.5461Z" fill="#3A4850"/>
<path fill-rule="evenodd" clip-rule="evenodd" d="M27.118 40.5764L24.283 48.0124H24.6731L25.4157 46.064H28.0842L28.8197 48.0124H30.1118L27.3063 40.5764H27.118ZM26.7573 42.5461L27.9674 45.7536H25.5343L26.7573 42.5461Z" fill="#3A4850"/>
<path fill-rule="evenodd" clip-rule="evenodd" d="M78.9837 40.5764L76.1487 48.0124H76.5383L77.2814 46.064H79.95L80.6855 48.0124H81.9775L79.1726 40.5764H78.9837ZM78.6231 42.5461L79.8325 45.7536H77.4L78.6231 42.5461Z" fill="#3A4850"/>
<path fill-rule="evenodd" clip-rule="evenodd" d="M59.2996 40.7293L57.396 43.4862L55.5999 40.7293H54.1443L56.647 44.5711L54.286 47.9913H54.7103L56.853 44.8874L58.8752 47.9913H60.3308L57.602 43.8024L59.7246 40.7293H59.2996Z" fill="#3A4850"/>
<path fill-rule="evenodd" clip-rule="evenodd" d="M10.0123 44.0754V41.0669H10.5736C11.9956 41.0669 12.0735 42.1714 12.0735 42.5718C12.0735 43.9458 11.0452 44.0672 10.7749 44.0754H10.0123ZM11.6916 44.3745H11.6827V44.371C11.9176 44.3283 13.3065 44.0139 13.3065 42.5546C13.3065 41.4412 12.2901 40.7856 10.8687 40.743V40.7406H10.0123H8.74438V48.0085H10.0123V44.3745H10.3464L12.3167 48.012H13.6619L11.6916 44.3745Z" fill="#3A4850"/>
<path fill-rule="evenodd" clip-rule="evenodd" d="M37.2946 40.7407H36.9345V45.7842L33.2336 40.7407H31.9226V48.008H32.2827V41.5112L37.0502 48.008H37.2946V40.7407Z" fill="#3A4850"/>
<path fill-rule="evenodd" clip-rule="evenodd" d="M89.2072 40.7407H88.8471V45.7842L85.1462 40.7407H83.8352V48.008H84.1953V41.5112L88.9628 48.008H89.2072V40.7407Z" fill="#3A4850"/>
<path fill-rule="evenodd" clip-rule="evenodd" d="M39.7234 48.0082H41.0468V40.7409H39.7234V48.0082Z" fill="#3A4850"/>
<path fill-rule="evenodd" clip-rule="evenodd" d="M21.1539 40.7407L19.2208 45.9695L17.1443 40.7407H15.7695V48.0121H16.168V41.7434L18.5579 47.7628H18.918L21.2177 41.5402V48.0121H22.4389V40.7407H21.1539Z" fill="#3A4850"/>
<path fill-rule="evenodd" clip-rule="evenodd" d="M52.6592 41.0843V40.7408H49.4642H48.2388V41.0843V47.9908H52.6592V47.5911H49.4642V44.3599H51.7254V43.9637H49.4642V41.0843H52.6592Z" fill="#3A4850"/>
<path fill-rule="evenodd" clip-rule="evenodd" d="M103.754 41.0843V40.7408H99.334V47.9908H103.754V47.5911H100.559V44.3599H102.821V43.9637H100.559V41.0843H103.754Z" fill="#3A4850"/>
<path fill-rule="evenodd" clip-rule="evenodd" d="M73.0153 40.7407V44.0928H70.0764V40.7407H68.8345V48.098H70.0764V44.4623H73.0153V48.098H74.2572V40.7407H73.0153Z" fill="#3A4850"/>
<path fill-rule="evenodd" clip-rule="evenodd" d="M66.4678 46.7185C65.9613 47.3883 65.2778 47.8065 64.6338 47.8065C63.2803 47.8065 62.6228 46.2708 62.6228 44.3603C62.6228 42.4492 63.3258 40.8863 64.6338 40.8863C65.2241 40.8863 65.9271 41.3292 66.4554 42.0316L66.7015 41.8374C66.2299 41.0503 65.3941 40.5682 64.4609 40.5682C62.7361 40.5682 61.3384 42.2543 61.3384 44.3336C61.3384 46.4124 62.7361 48.0978 64.4609 48.0978C65.3663 48.0978 66.1809 47.6335 66.7511 46.8915L66.4678 46.7185Z" fill="#3A4850"/>
<path fill-rule="evenodd" clip-rule="evenodd" d="M94.8976 45.0685V45.4102H95.8444V47.1283C95.5174 47.6347 95.1644 47.8017 94.7731 47.8064C93.419 47.8206 92.7626 46.2708 92.7626 44.3602C92.7626 42.4491 93.4645 40.8862 94.7731 40.8862C95.3627 40.8862 96.0657 41.3298 96.5946 42.0316L96.8408 41.8373C96.3691 41.0502 95.5327 40.5682 94.6001 40.5682C92.8754 40.5682 91.4771 42.2542 91.4771 44.3336C91.4771 46.4129 92.8754 48.0978 94.6001 48.0978C95.2996 48.0978 96.097 47.849 96.6159 47.1289C96.7569 46.9323 97.0562 46.4999 97.0562 46.4999V45.0685H94.8976Z" fill="#3A4850"/>
</svg>
