<svg width="135" height="14" viewBox="0 0 135 14" fill="none" xmlns="http://www.w3.org/2000/svg">
<path fill-rule="evenodd" clip-rule="evenodd" d="M7.21873 8.7646H5.02525V12.9635H7.3185C8.71417 12.9635 10.3094 12.6637 10.3094 10.9643C10.3094 8.96432 9.0135 8.7646 7.21873 8.7646ZM6.82002 4.76543H5.02525V8.26473H7.3185C8.61479 8.26473 9.61175 8.06461 9.61175 6.46445C9.61175 4.96555 8.61479 4.76543 6.82002 4.76543ZM8.61479 13.3637H0.23999V12.9635H2.43347V4.76539H0.23999V4.26549H7.71721C10.1098 4.26549 11.9046 4.96551 11.9046 6.46441C11.9046 7.76479 10.4092 8.46441 8.51502 8.46441C10.8079 8.46441 12.8018 9.36454 12.8018 10.9643C12.8018 12.1634 11.4057 13.3637 8.61479 13.3637Z" fill="#3A4850"/>
<path fill-rule="evenodd" clip-rule="evenodd" d="M56.1699 8.7646H53.9764V12.9635H56.2693C57.6653 12.9635 59.1604 12.6637 59.1604 10.9643C59.1604 8.96432 57.9647 8.7646 56.1699 8.7646ZM55.7708 4.76543H53.9764V8.26473H56.2693C57.566 8.26473 58.5629 8.06461 58.5629 6.46445C58.5629 4.96555 57.566 4.76543 55.7708 4.76543ZM57.566 13.3637H49.1912V12.9635H51.3846V4.76539H49.1912V4.26549H56.6684C59.061 4.26549 60.8558 4.96551 60.8558 6.46441C60.8558 7.76479 59.3599 8.46441 57.4662 8.46441C59.7587 8.46441 61.7534 9.36454 61.7534 10.9643C61.7534 12.1634 60.3573 13.3637 57.566 13.3637Z" fill="#3A4850"/>
<path fill-rule="evenodd" clip-rule="evenodd" d="M28.0555 4.76533V10.3643C28.0555 12.6637 26.1606 13.6639 23.0707 13.6639C20.8773 13.6639 17.4873 13.0635 17.4873 10.4643V4.76533H15.2942V4.26543H22.3727V4.76533H20.0798V10.4643C20.0798 12.6637 21.8742 12.9634 23.5692 12.9634C25.6625 12.9634 27.5571 12.2642 27.5571 10.3643V4.76533H25.2642V4.26543H30.3488V4.76533H28.0555Z" fill="#3A4850"/>
<path fill-rule="evenodd" clip-rule="evenodd" d="M39.0221 4.76537H37.1279V8.36433H39.1219C40.6173 8.36433 41.7136 8.06455 41.7136 6.56525C41.7136 5.16521 40.9162 4.76537 39.0221 4.76537ZM45.5027 13.6639C44.0069 13.6639 42.2121 12.9634 42.2121 11.0639V10.4643C42.2121 9.36448 41.2156 8.86418 39.7201 8.86418H37.1279V12.9634H39.2216V13.3637H32.3423V12.9634H34.5358V4.76533H32.3423V4.26543H40.0191C42.7106 4.26543 44.3058 5.26523 44.3058 6.5652C44.3058 7.76472 42.9102 8.66446 40.9162 8.66446C43.7076 8.66446 44.9041 9.86438 44.9041 11.164V12.1638C44.9041 12.7637 45.2034 13.1636 45.9015 13.1636C46.3995 13.1636 46.6989 12.9634 46.8976 12.7637L47.1969 13.1636C46.7982 13.4637 46.3002 13.6639 45.5027 13.6639Z" fill="#3A4850"/>
<path fill-rule="evenodd" clip-rule="evenodd" d="M104.722 4.76537H102.828V8.36433H104.822C106.318 8.36433 107.513 8.06455 107.513 6.56525C107.513 5.16521 106.616 4.76537 104.722 4.76537ZM111.203 13.6639C109.707 13.6639 108.012 12.9634 108.012 11.0639V10.4643C108.012 9.36448 106.916 8.86418 105.42 8.86418H102.828V12.9634H104.921V13.3637H98.0425V12.9634H100.236V4.76533H98.0425V4.26543H105.819C108.411 4.26543 110.106 5.26523 110.106 6.5652C110.106 7.76472 108.61 8.66446 106.616 8.66446C109.507 8.66446 110.604 9.86438 110.604 11.164V12.1638C110.604 12.7637 111.003 13.1636 111.601 13.1636C112.1 13.1636 112.399 12.9634 112.698 12.7637L112.897 13.1636C112.498 13.4637 112 13.6639 111.203 13.6639Z" fill="#3A4850"/>
<path fill-rule="evenodd" clip-rule="evenodd" d="M87.8734 4.76537H85.9789V8.36433H87.9732C89.4686 8.36433 90.565 8.06455 90.565 6.56525C90.565 5.16521 89.6682 4.76537 87.8734 4.76537ZM94.3537 13.6639C92.8582 13.6639 91.0635 12.9634 91.0635 11.0639V10.4643C91.0635 9.36448 89.9671 8.86418 88.4717 8.86418H85.9789V12.9634H88.073V13.3637H81.1936V12.9634H83.3871V4.76533H81.1936V4.26543H88.8704C91.5619 4.26543 93.1572 5.26523 93.1572 6.5652C93.1572 7.76472 91.6617 8.66446 89.7676 8.66446C92.5593 8.66446 93.7554 9.86438 93.7554 11.164V12.1638C93.7554 12.7637 94.0547 13.1636 94.7524 13.1636C95.2509 13.1636 95.5502 12.9634 95.7489 12.7637L95.9485 13.1636C95.5502 13.4637 95.1515 13.6639 94.3537 13.6639Z" fill="#3A4850"/>
<path fill-rule="evenodd" clip-rule="evenodd" d="M64.7437 13.3637V12.9635H67.0373V4.76537H64.7437V4.26547H76.8074V7.16481H76.3089C76.3089 5.96489 75.4113 4.76537 73.1185 4.76537H69.5293V8.46439H70.925C72.62 8.46439 73.1185 7.56465 73.1185 6.76457H73.6165V10.6641H73.1185C73.1185 9.86443 72.62 8.96429 70.925 8.96429H69.5293V12.9635H73.2178C76.1093 12.9635 77.2061 11.6635 77.2061 10.2643H77.7042V13.3637H64.7437Z" fill="#3A4850"/>
<path fill-rule="evenodd" clip-rule="evenodd" d="M126.456 4.76533L122.368 9.5642V12.9634H124.661V13.3637H117.583V12.9634H119.876V9.46414L115.689 4.76533H113.197V4.26543H120.774V4.76533H118.481L122.269 8.86418L125.858 4.76533H123.665V4.26543H128.45V4.76533H126.456Z" fill="#3A4850"/>
<path fill-rule="evenodd" clip-rule="evenodd" d="M131.74 2.36559V1.66597H132.239C132.637 1.66597 132.836 1.76563 132.836 2.06541C132.836 2.26553 132.637 2.36559 132.338 2.36559H131.74ZM131.441 1.36622V3.76566H131.74V2.76547H132.139L132.837 3.76566H133.236L132.538 2.6658C132.936 2.6658 133.136 2.36562 133.136 2.06545C133.136 1.56594 132.837 1.36622 132.338 1.36622H131.441ZM132.139 0.765828H132.239C133.136 0.765828 133.933 1.56591 133.933 2.56571C133.933 3.5655 133.136 4.26552 132.239 4.26552C131.241 4.26552 130.544 3.5655 130.544 2.56571C130.544 1.56591 131.241 0.865888 132.139 0.765828ZM132.239 0.46608C131.042 0.46608 130.045 1.36622 130.045 2.56574C130.045 3.76566 131.042 4.6654 132.239 4.6654C133.435 4.6654 134.332 3.76566 134.332 2.56574C134.332 1.36622 133.335 0.46608 132.239 0.46608Z" fill="#3A4850"/>
</svg>
