<svg width="116" height="19" viewBox="0 0 116 19" fill="none" xmlns="http://www.w3.org/2000/svg">
<path fill-rule="evenodd" clip-rule="evenodd" d="M17.5657 7.19195C16.907 5.77171 16.1809 4.37381 14.964 3.35623C13.669 2.26044 12.0276 1.60036 10.3305 1.60036C5.81877 1.60036 3.79812 5.68233 3.79812 9.69634C3.79812 13.5767 5.72952 17.5014 10.0846 17.5014C11.8603 17.5014 13.5909 16.73 14.6851 15.3322V12.2017C14.6851 11.3517 14.4057 10.8038 13.747 10.3006H18.3587C17.8674 10.8596 17.5657 11.4299 17.5657 12.2017V15.3322C15.4558 17.3003 12.8313 18.5083 9.91724 18.5083C4.76963 18.5083 0.560059 14.7172 0.560059 9.43939C0.560059 4.19506 4.71385 0.605591 9.79406 0.605591C12.954 0.605591 15.5111 1.76841 17.5657 4.10569V7.19195ZM110.993 1.22048H115.024C114.577 1.56728 114.309 1.99181 114.309 2.57369V16.4731C114.309 17.0545 114.588 17.4678 115.024 17.8146H110.993C111.428 17.4678 111.696 17.0428 111.696 16.4731V2.57369C111.696 1.99181 111.439 1.56728 110.993 1.22048ZM33.2096 1.22048H28.8662C29.3794 1.66782 29.6587 2.1822 29.6587 2.8758V13.0176C29.6587 16.7859 34.1588 18.1498 37.2407 18.1498C40.2329 18.1498 44.5545 16.7412 44.5545 13.0735V2.8758C44.5545 2.20454 44.7334 1.71298 45.2131 1.22048H42.8457C43.304 1.72368 43.4714 2.19337 43.4714 2.8758V13.0735C43.4714 15.7911 40.4118 17.1662 38.0667 17.1662C35.677 17.1662 32.4171 15.8018 32.4171 13.0176V2.8758C32.4171 2.14868 32.6179 1.65665 33.2096 1.22048ZM72.3689 7.24741C71.7883 5.78295 71.1073 4.49723 69.9127 3.43496C68.6283 2.29402 67.0651 1.57808 65.3345 1.57808C60.8683 1.57808 58.579 5.49201 58.579 9.55117C58.579 13.6327 60.9571 17.4903 65.3675 17.4903C68.6507 17.4903 70.9958 15.1753 72.3689 12.3912V15.4104C70.3255 17.4344 67.6908 18.4632 64.8097 18.4632C59.4724 18.4632 55.4744 15.0078 55.4744 9.49484C55.4744 4.13927 59.3163 0.616826 64.5531 0.616826C67.456 0.616826 70.2697 1.62324 72.3689 3.62489V7.24741ZM97.9174 3.43496C99.112 4.49723 99.793 5.78295 100.374 7.24741V3.62489C98.2744 1.62324 95.4607 0.616826 92.5573 0.616826C87.3204 0.616826 83.4795 4.13927 83.4795 9.49484C83.4795 15.0078 87.4771 18.4632 92.8144 18.4632C95.7061 18.4632 98.3301 17.4344 100.374 15.4104V12.3912C99.0111 15.1753 96.6553 17.4903 93.3726 17.4903C88.9618 17.4903 86.5944 13.6327 86.5944 9.55117C86.5944 5.49201 88.8725 1.57808 93.3387 1.57808C95.0698 1.57808 96.633 2.29402 97.9174 3.43496Z" fill="#3A4850"/>
</svg>
