<svg width="93" height="25" viewBox="0 0 93 25" fill="none" xmlns="http://www.w3.org/2000/svg">
<path fill-rule="evenodd" clip-rule="evenodd" d="M83.1612 3.68786L83.1659 3.60726C83.2162 2.73643 83.2605 1.96956 83.9043 1.40224C84.6745 0.765135 85.4966 0.79131 86.4253 0.844708L86.3997 2.06657L86.3057 2.06632C85.8821 2.06467 85.4411 2.06294 85.0458 2.35973C84.6479 2.67802 84.5945 3.1565 84.5945 4.11242V5.86668H86.4253V6.9828H84.5945V19.5778H83.1612V6.9828H81.7012V5.89286H83.1612V3.68786ZM16.1989 3.26262H14.5271V0.897948H16.1989V3.26262ZM16.0666 19.5776H14.6333V5.9194H16.0666V19.5776ZM9.64317 8.89557H2.23856V0.951398H0.671875V19.5777H2.26523V10.3038H9.64317V19.5777H11.1827V0.951398H9.64317V8.89557ZM19.3035 19.5776H20.7892V0.951345H19.3035V19.5776ZM24.2131 7.46117C23.9746 8.0454 23.8946 8.65633 23.8151 9.32066H25.3018C25.3551 8.60346 25.4079 7.93913 25.912 7.43447C26.1249 7.19471 26.6818 6.74345 27.5572 6.74345C28.2208 6.74345 28.6459 6.98269 28.8587 7.14236C29.6546 7.67372 29.708 8.39092 29.708 9.32066C29.708 10.118 29.6808 10.4635 29.4423 10.7556C29.0239 11.2904 28.0568 11.6014 27.3413 11.8314L27.3411 11.8315C27.2394 11.8642 27.1428 11.8953 27.0536 11.9251C25.9387 12.2696 24.93 12.669 24.2131 13.6254C23.4936 14.628 23.4957 15.7316 23.4966 16.1866L23.4967 16.2293C23.4967 17.1329 23.6295 17.6381 23.7628 18.0098C24.028 18.7008 24.7977 19.9766 26.7351 19.9766C28.45 19.9766 29.3004 19.0129 29.7402 18.5145L29.7874 18.461C29.7936 18.4797 29.8008 18.5073 29.8099 18.5419C29.8787 18.8048 30.0534 19.4721 30.6633 19.684C30.8757 19.763 31.0613 19.763 31.168 19.763C31.46 19.763 31.8952 19.706 32.1267 19.6757H32.1268L32.1269 19.6757C32.2107 19.6647 32.2679 19.6573 32.2818 19.6573V18.6212C31.6187 18.5411 31.2997 18.4877 31.2208 17.7967C31.1859 17.6218 31.1741 17.4465 31.1622 17.2712C31.1561 17.1809 31.15 17.0907 31.1408 17.0005V8.8427C31.1408 8.68356 31.1146 7.72711 30.7695 7.00887C30.6362 6.74345 30.3977 6.39794 30.1592 6.21209C29.2828 5.52107 27.9023 5.49437 27.6905 5.49437C25.4869 5.49437 24.5849 6.58378 24.2131 7.46117ZM26.0982 13.8113C26.4167 13.5993 26.7618 13.4396 27.1336 13.3061L29.7341 12.2172V15.432C29.6808 16.3361 29.6008 17.0533 29.0177 17.7433C28.5136 18.3291 27.7705 18.7008 27.0274 18.7008C26.4167 18.7008 26.0715 18.4877 25.8587 18.3291C25.3818 17.9569 25.0367 17.3716 25.0367 16.1231C25.0367 14.8478 25.6731 14.1306 26.0982 13.8113ZM36.184 5.78727V7.51326C36.2573 7.4087 36.3172 7.32268 36.3682 7.24951C36.5756 6.95156 36.6348 6.86659 36.8476 6.61022C37.7996 5.48224 38.8457 5.48925 39.4958 5.4936C39.5345 5.49386 39.5718 5.49411 39.6076 5.49411L39.5815 6.95573C38.3066 7.06252 37.8291 7.24837 37.325 7.70015C36.4261 8.45453 36.3277 9.85264 36.297 10.2883C36.2942 10.3289 36.2919 10.3611 36.2896 10.3836V19.5779H34.7774V5.78727H36.184ZM47.9152 5.83936L44.7839 17.346L41.8906 5.83936H40.3783L43.987 19.5505L43.9837 19.565C43.8248 20.2578 43.5594 21.4155 43.1383 22.0486C42.9788 22.3146 42.4747 22.9517 41.4921 22.9517C41.2446 22.9517 40.885 22.8872 40.7247 22.8584L40.7247 22.8584C40.6788 22.8502 40.6492 22.8449 40.6434 22.8449L40.6167 24.0683C41.227 24.1735 41.4132 24.2007 41.7578 24.2007C43.6691 24.2007 44.3321 22.8449 44.5978 22.2612C44.7573 21.889 44.9157 21.4639 45.0491 21.0655L49.4019 5.83936H47.9152ZM61.4241 0.924385C61.5501 0.932671 61.6734 0.938334 61.795 0.943915C62.0574 0.955964 62.3115 0.967629 62.5656 1.00448L62.5675 1.00465C63.1537 1.05723 65.2476 1.24506 66.6267 2.99694C67.4231 3.98008 67.6621 4.96322 67.9272 6.18508C68.0867 7.59383 68.2451 9.02823 68.2451 10.4637C68.2451 11.8059 68.0531 13.1963 67.9422 13.9988C67.9104 14.2289 67.8853 14.4107 67.8733 14.5292C67.8685 14.546 67.8618 14.5704 67.8532 14.6014C67.7671 14.9135 67.4951 15.8985 67.1569 16.5751C66.7851 17.2928 65.8297 18.8596 63.7861 19.392C63.3359 19.4978 62.8841 19.5507 62.4328 19.5774H57.283V0.924385H61.4241ZM58.8764 18.1157H62.3005C63.3087 18.0629 63.9195 17.9571 64.6892 17.2661C65.7466 16.3275 66.0206 15.258 66.1813 14.6305L66.1815 14.6299C66.1982 14.5646 66.2137 14.5042 66.2287 14.4491C66.44 13.2011 66.5995 12.2446 66.5995 9.77318C66.5995 8.76281 66.5995 7.93882 66.2549 5.99976C66.2239 5.89422 66.1944 5.78874 66.165 5.68363L66.1649 5.68347C66.0683 5.33818 65.9728 4.99695 65.8297 4.67111C65.3528 3.58169 64.6626 3.15608 64.2379 2.94354C63.9456 2.78387 63.441 2.54515 62.6979 2.43836C62.1636 2.34576 61.5474 2.35472 61.2957 2.35838C61.2599 2.3589 61.2315 2.35931 61.2118 2.35931H58.8764V18.1157ZM72.7037 15.6707V5.9194H71.2442V16.123C71.2714 17.5579 71.4032 18.0626 71.8284 18.6479C72.7299 19.8436 74.0314 19.9493 74.4822 19.9493C75.3586 19.9493 76.314 19.6577 77.0576 19.0719C77.3755 18.8332 77.5612 18.6479 77.853 18.3291V19.5776H79.2335V5.9194H77.7996V16.389C77.3227 17.2124 76.8709 17.9836 75.995 18.4348C75.8094 18.5411 75.412 18.7013 74.854 18.7013C74.5889 18.7013 74.0843 18.6741 73.5535 18.249C72.6781 17.5579 72.6781 16.7073 72.7037 15.6707ZM88.952 3.60726L88.9473 3.68786V5.89286H87.4873V6.9828H88.9473V19.5778H90.3807V6.9828H92.212V5.86668H90.3807V4.11242C90.3807 3.1565 90.434 2.67802 90.832 2.35973C91.2272 2.06294 91.6683 2.06467 92.0918 2.06632C92.1233 2.06644 92.1546 2.06657 92.1858 2.06657L92.212 0.844708C91.2827 0.79131 90.4607 0.765135 89.6904 1.40224C89.0466 1.96956 89.0023 2.73643 88.952 3.60726Z" fill="#3A4850"/>
</svg>
