<svg width="135" height="27" viewBox="0 0 135 27" fill="none" xmlns="http://www.w3.org/2000/svg">
<path fill-rule="evenodd" clip-rule="evenodd" d="M48.5432 13.7034C48.5432 7.46485 53.6338 2.39102 59.8901 2.39102C66.147 2.39102 71.2365 7.46485 71.2365 13.7034C71.2365 19.9416 66.147 25.0154 59.8901 25.0154C53.6338 25.0154 48.5432 19.9416 48.5432 13.7034ZM46.8232 13.7032C46.8232 20.887 52.685 26.7311 59.8901 26.7311C67.0951 26.7311 72.9572 20.887 72.9572 13.7032C72.9572 6.5198 67.0951 0.674927 59.8901 0.674927C52.685 0.674927 46.8232 6.5198 46.8232 13.7032Z" fill="#3A4850"/>
<path fill-rule="evenodd" clip-rule="evenodd" d="M61.7741 14.1234H64.9555C65.8992 14.1234 66.4586 14.2976 66.819 15.14C67.1168 14.4215 67.6265 14.1365 68.4975 14.1234H68.8317V18.3118H64.6943C65.0804 17.9768 65.2781 17.5429 65.2781 17.0359C65.2781 16.1178 64.5577 15.4373 63.5384 15.4373C62.3844 15.4373 61.6997 16.1178 61.6997 17.0359C61.6997 17.6545 62.0237 18.1006 62.6441 18.3118C62.0353 18.608 61.6997 19.1288 61.6997 19.7738C61.6997 20.7904 62.4327 21.3333 63.8872 21.3333C64.0604 21.3333 64.2602 21.3209 64.4709 21.3094V22.7207H61.7741C60.7923 22.7207 60.2583 22.5233 59.911 21.6925C59.5623 22.5233 59.0283 22.7207 58.0465 22.7207H55.3497V21.3094C55.5615 21.3209 55.7598 21.3333 55.9462 21.3333C57.3875 21.3333 58.134 20.7904 58.134 19.7738C58.134 19.1288 57.7857 18.608 57.1758 18.3118C57.7984 18.1006 58.1206 17.6545 58.1206 17.0359C58.1206 16.1178 57.4497 15.4373 56.2945 15.4373C55.2749 15.4373 54.5549 16.1178 54.5549 17.0359C54.5549 17.5429 54.7413 17.9768 55.1259 18.3118H50.9893V14.1234H51.3234C52.1931 14.1365 52.7031 14.4215 53.002 15.14C53.3497 14.3096 53.884 14.1234 54.8651 14.1234H58.0465C58.9662 14.1234 59.5373 14.2726 59.911 15.14C60.2583 14.3096 60.7923 14.1234 61.7741 14.1234Z" fill="#3A4850"/>
<path fill-rule="evenodd" clip-rule="evenodd" d="M58.0062 13.2833H54.8256C53.8815 13.2833 53.3221 13.1091 52.9617 12.2664C52.6631 12.9852 52.1542 13.2692 51.2839 13.2833H50.9482V9.09566H55.0867C54.701 9.42993 54.5023 9.86416 54.5023 10.3715C54.5023 11.2878 55.223 11.969 56.2426 11.969C57.3974 11.969 58.0799 11.2878 58.0799 10.3715C58.0799 9.75189 57.7581 9.30607 57.1358 9.09566C57.7454 8.79833 58.0799 8.27791 58.0799 7.63254C58.0799 6.61705 57.3476 6.07273 55.8939 6.07273C55.7203 6.07273 55.5208 6.08504 55.3105 6.09808V4.68494H58.0062C58.9881 4.68494 59.5228 4.88449 59.8704 5.71419C60.2184 4.88449 60.7524 4.68494 61.7342 4.68494H64.431V6.09808C64.2196 6.08504 64.0205 6.07273 63.8331 6.07273C62.3932 6.07273 61.6463 6.61705 61.6463 7.63254C61.6463 8.27791 61.9954 8.79833 62.6038 9.09566C61.9823 9.30607 61.6598 9.75189 61.6598 10.3715C61.6598 11.2878 62.331 11.969 63.4862 11.969C64.5051 11.969 65.2254 11.2878 65.2254 10.3715C65.2254 9.86416 65.0394 9.42993 64.6533 9.09566H68.7914V13.2833H68.4558C67.5862 13.2692 67.0784 12.9852 66.779 12.2664C66.4321 13.0961 65.8974 13.2833 64.9156 13.2833H61.7342C60.8152 13.2833 60.2427 13.1341 59.8704 12.2664C59.5228 13.0961 58.9881 13.2833 58.0062 13.2833Z" fill="#3A4850"/>
<path fill-rule="evenodd" clip-rule="evenodd" d="M9.92481 9.14679V10.8287H6.51207V18.3463H4.18546V10.8287H0.76001V9.14679H9.92481Z" fill="#3A4850"/>
<path fill-rule="evenodd" clip-rule="evenodd" d="M14.381 10.8138C12.6694 11.5689 12.5379 13.1993 12.5379 13.8114C12.5379 13.9953 12.5513 14.5936 12.7863 15.1405C12.8521 15.31 12.9313 15.4805 13.1398 15.767C13.2052 15.8456 13.3752 16.0915 13.6105 16.2878C13.9767 16.6 14.6832 16.9911 15.8202 16.9911C16.0283 16.9911 16.5779 16.9792 17.153 16.7698C18.9703 16.1194 19.1272 14.3332 19.1272 13.7599C19.1272 13.3699 19.0622 12.3653 18.3026 11.5178C17.6499 10.8138 16.6695 10.4755 15.7141 10.515C15.5063 10.515 14.9571 10.5671 14.381 10.8138ZM19.0353 9.51111C19.1795 9.58753 19.4411 9.71935 19.7673 9.95331C20.0284 10.15 20.2907 10.3839 20.4996 10.645C20.8912 11.1006 21.4796 12.1172 21.4796 13.6549C21.4796 13.8382 21.4673 14.3209 21.3754 14.828C21.2446 15.4418 20.8912 16.7698 19.4934 17.7071C18.8519 18.1247 17.676 18.6476 15.8453 18.6476C13.1016 18.6476 11.6497 17.5387 10.9831 16.5609C10.6689 16.1194 10.1589 15.1532 10.1589 13.7469C10.1589 11.6218 11.192 10.515 11.8717 9.99278C12.8786 9.22319 14.2244 8.89834 15.4657 8.85995C16.6168 8.80671 18.0026 9.00083 19.0353 9.51111Z" fill="#3A4850"/>
<path fill-rule="evenodd" clip-rule="evenodd" d="M25.7012 13.017H29.4013C29.4144 13.017 29.7798 13.017 29.9767 12.9776C30.2506 12.8997 30.7871 12.6781 30.7871 11.9233C30.7871 11.8321 30.774 11.492 30.604 11.2312C30.317 10.7898 29.807 10.7757 29.3366 10.7615H25.7012V13.017ZM29.7551 9.14673C30.5513 9.15977 30.9055 9.19888 31.2847 9.31441C32.4726 9.66679 33.1257 10.6852 33.1257 11.8948C33.1257 12.1309 33.1133 12.5883 32.8794 13.1084C32.4602 14.0485 31.6625 14.3336 30.721 14.502L33.5311 18.3466H30.8002L28.3428 14.6461H25.7012V18.3466H23.4011V9.14673H29.7551Z" fill="#3A4850"/>
<path fill-rule="evenodd" clip-rule="evenodd" d="M36.1203 9.14679L38.5766 12.613C38.7084 12.7825 38.7727 12.8734 38.8389 13.0693C38.8792 12.9654 38.9159 12.8734 39.0626 12.6782L41.5716 9.14679H44.3806L39.9758 14.8939V18.3463H37.6765V14.8939L33.2822 9.14679H36.1203Z" fill="#3A4850"/>
<path fill-rule="evenodd" clip-rule="evenodd" d="M79.0899 16.8239H82.5684C82.8288 16.8239 83.1045 16.8239 83.365 16.7337C83.6795 16.6294 84.0719 16.3302 84.0719 15.574C84.0719 15.4676 84.0464 15.0511 83.7969 14.7664C83.5357 14.4778 83.2073 14.4644 82.8412 14.4528L79.0899 14.4644V16.8239ZM79.0899 12.8487H82.3965C82.8412 12.8487 83.289 12.8487 83.5357 12.4068C83.6795 12.1714 83.6795 11.9121 83.6795 11.8212C83.6795 11.7412 83.6795 11.5601 83.6018 11.3645C83.3806 10.7789 82.7256 10.8296 82.58 10.8296H79.0899V12.8487ZM82.7881 9.24005C83.4841 9.25309 84.2273 9.26468 84.8565 9.58953C85.2877 9.82639 85.9012 10.333 85.9012 11.4938C85.9012 11.8961 85.8216 12.8098 84.79 13.2926C84.6988 13.331 84.5826 13.3842 84.3726 13.4494C84.79 13.5526 84.9455 13.6041 85.1562 13.7084C86.3062 14.282 86.3712 15.3649 86.3712 15.7944C86.3712 16.146 86.3462 17.2166 85.445 17.8945C84.7504 18.428 83.9534 18.4396 83.1434 18.4396H76.804V9.24005H82.7881Z" fill="#3A4850"/>
<path fill-rule="evenodd" clip-rule="evenodd" d="M90.7897 9.24005V14.6601C90.817 15.3649 90.8947 15.9523 91.522 16.3948C92.254 16.9156 93.3143 16.8906 93.5221 16.8906C93.6914 16.8906 94.606 16.8906 95.249 16.5256C95.6783 16.2895 95.8897 15.965 95.9813 15.7947C96.0859 15.5854 96.1113 15.4286 96.1368 14.9871V9.24005H98.4361V14.5949C98.4245 15.4558 98.4245 16.1736 97.9661 16.9156C97.8894 17.0341 97.706 17.3078 97.4183 17.5682C96.4241 18.4541 94.7771 18.7525 93.5086 18.7525C93.2097 18.7525 92.5028 18.7405 91.7047 18.5714C89.8613 18.1665 89.0777 17.2166 88.7486 16.4589C88.5543 16.0037 88.5027 15.5854 88.49 14.5826V9.24005H90.7897Z" fill="#3A4850"/>
<path fill-rule="evenodd" clip-rule="evenodd" d="M103.367 13.1096H107.066C107.078 13.1096 107.445 13.1096 107.642 13.0708C107.913 12.993 108.449 12.7706 108.449 12.0159C108.449 11.9242 108.439 11.5845 108.269 11.3234C107.98 10.8823 107.469 10.8682 106.999 10.8541H103.367V13.1096ZM107.417 9.23926C108.217 9.25302 108.569 9.29068 108.947 9.40694C110.136 9.75932 110.79 10.7784 110.79 11.9877C110.79 12.2242 110.779 12.6801 110.542 13.2009C110.125 14.1407 109.328 14.4254 108.384 14.5949L111.196 18.4395H108.464L106.006 14.739H103.367V18.4395H101.064V9.23926H107.417Z" fill="#3A4850"/>
<path fill-rule="evenodd" clip-rule="evenodd" d="M120.49 12.1319C120.348 11.9124 120.086 11.5065 119.563 11.1548C119.259 10.9592 118.634 10.6456 117.718 10.6456C117.483 10.6456 116.896 10.6608 116.281 10.9205C115.079 11.4152 114.438 12.5611 114.438 13.854C114.438 14.491 114.634 15.1947 115.013 15.7285C115.092 15.8466 115.289 16.0805 115.588 16.3163C115.941 16.6017 116.648 17.0587 117.783 17.0587C119.131 17.0587 119.848 16.497 120.215 16.0689C120.372 15.8987 120.476 15.7285 120.687 15.3385L123.117 15.3109C122.99 15.7807 122.91 15.952 122.792 16.1841C122.646 16.4717 122.399 16.8903 121.836 17.3861C121.078 18.0492 119.864 18.7518 117.588 18.7518C117.066 18.7518 115.237 18.7402 113.799 17.6726C112.123 16.4351 112.045 14.5048 112.045 13.8275C112.045 12.8888 112.266 11.9124 112.79 11.1287C112.974 10.8546 113.144 10.6608 113.378 10.437C113.694 10.1382 113.849 10.0339 114.034 9.91731C114.634 9.51278 115.875 8.95325 117.718 8.95325C118.229 8.95325 120.006 9.00322 121.445 9.95425C122.23 10.4888 122.659 11.1287 122.83 11.4275C122.895 11.5597 122.962 11.6883 123.013 11.8205L120.49 12.1319Z" fill="#3A4850"/>
<path fill-rule="evenodd" clip-rule="evenodd" d="M126.792 9.24005V12.7856H132.361V9.24005H134.674V18.4396H132.361V14.4913H126.792V18.4396H124.477V9.24005H126.792Z" fill="#3A4850"/>
</svg>
