<svg width="110" height="23" viewBox="0 0 110 23" fill="none" xmlns="http://www.w3.org/2000/svg">
<path fill-rule="evenodd" clip-rule="evenodd" d="M98.4436 1.26337H109.075V2.94216C108.767 2.84035 108.442 2.78536 108.118 2.78536H102.006V10.6305H107.951C108.379 10.6305 108.759 10.5837 109.075 10.5053V12.1762C108.806 12.1133 108.434 12.082 107.975 12.082H102.006V20.194H107.935C108.26 20.194 108.648 20.1469 109.075 20.0451V21.8494H98.4593C98.5386 21.5513 98.5862 21.2295 98.5862 20.8767V2.2597C98.5862 1.85191 98.5386 1.51436 98.4436 1.26337Z" fill="#3A4850"/>
<path fill-rule="evenodd" clip-rule="evenodd" d="M95.9816 6.60605L92.9099 6.58264C92.7597 4.87254 91.7699 3.21689 89.5927 2.91118C84.9302 2.4955 83.6155 7.57108 83.7347 11.282C83.8534 14.8593 84.4311 20.359 89.2446 20.359C91.2631 20.359 93.203 18.3034 93.1393 16.5694L95.9816 16.5462C95.7758 20.1235 91.6353 22.1946 89.6641 22.2654C82.9271 22.4929 80.1087 18.0446 79.9664 11.6977C79.8398 5.94728 82.2146 0.839844 88.8724 0.839844C94.5724 0.918516 95.6728 4.26059 95.9816 6.60605Z" fill="#3A4850"/>
<path fill-rule="evenodd" clip-rule="evenodd" d="M48.0706 19.5114L50.1052 17.825C51.1661 19.5588 52.0369 20.3507 54.1425 20.3507C56.2801 20.3507 58.0772 19.0642 58.0772 16.7892C58.0772 15.6671 57.6179 14.7495 56.7073 14.0591C56.2958 13.7376 55.2511 13.1806 53.6043 12.4037C51.1422 11.2348 48.7433 9.7128 48.7433 6.6533C48.7433 2.79346 52.0526 1.09098 55.5437 0.965487C57.61 0.886815 60.1751 2.01681 61.2121 3.28754L59.1458 4.86453C58.2431 3.23283 56.6518 2.60508 55.3459 2.60508C52.7096 2.60508 50.6197 5.63328 52.8047 7.72014C53.3587 8.25369 54.491 8.91247 56.2167 9.69729C58.9716 10.9762 61.3228 12.5058 61.3228 15.8873C61.3228 17.0557 61.014 18.1462 60.4044 19.1429C59.1774 21.151 57.1273 22.1553 54.2614 22.1553C50.9681 22.1553 50.319 21.4102 48.0706 19.5114Z" fill="#3A4850"/>
<path fill-rule="evenodd" clip-rule="evenodd" d="M19.0801 1.26337H29.7043V2.94216C29.3955 2.84035 29.0711 2.78536 28.7461 2.78536H22.6347V10.6305H28.5799C29.0076 10.6305 29.3875 10.5837 29.7043 10.5053V12.1762C29.4348 12.1133 29.0631 12.082 28.6115 12.082H22.6347V20.194H28.5643C28.8887 20.194 29.2768 20.1469 29.7043 20.0451V21.8494H19.0963C19.1672 21.5513 19.2147 21.2295 19.2147 20.8767V2.2597C19.2147 1.85191 19.1672 1.51436 19.0801 1.26337Z" fill="#3A4850"/>
<path fill-rule="evenodd" clip-rule="evenodd" d="M0.5 1.26337H4.36334V1.45174C4.36334 1.62433 4.41883 1.85191 4.5136 2.1421L9.96029 18.3894L15.5496 2.07159C15.6366 1.79665 15.6842 1.53014 15.6842 1.26337H17.5601C17.3702 1.59276 17.2279 1.88322 17.1409 2.1421L10.7602 21.0098C10.6965 21.1903 10.6413 21.4729 10.5937 21.8494H7.42703C7.3872 21.5981 7.31606 21.3158 7.21332 21.0098L0.959293 2.29101C0.887872 2.11842 0.737613 1.76562 0.507966 1.26337H0.5Z" fill="#3A4850"/>
<path fill-rule="evenodd" clip-rule="evenodd" d="M40.8904 10.4271C40.2177 10.8981 39.4098 11.1333 38.4838 11.1333H36.9007V2.76246H38.3176C39.529 2.76246 40.4707 3.06054 41.1437 3.65671C42.062 4.48045 42.5292 5.59466 42.5292 6.99116C42.5292 8.49736 41.9829 9.64288 40.8904 10.4271ZM41.5316 11.9963C44.0651 11.5019 46.0042 9.57979 46.0042 6.83416C46.0042 3.23293 42.9646 1.26367 39.5603 1.26367H33.3379C33.425 1.57754 33.4728 1.90721 33.4728 2.25238V20.861C33.4728 21.2614 33.425 21.5987 33.3379 21.8497H37.0427C36.9559 21.5437 36.9084 21.214 36.9084 20.861V12.3099L38.0956 12.4354L44.3024 21.8497H48.0312L41.5316 11.9963Z" fill="#3A4850"/>
<path fill-rule="evenodd" clip-rule="evenodd" d="M66.6032 13.8862L69.8331 4.58979L73.1503 13.8862H66.6032ZM79.3489 20.9944L72.4298 1.94616C72.3507 1.71069 72.3032 1.47522 72.2952 1.26343H69.3026C69.3026 1.50652 69.2634 1.76568 69.168 2.02456L62.463 20.9944C62.3756 21.2685 62.2333 21.5513 62.0432 21.8494H63.9749C63.9669 21.5355 64.0065 21.2454 64.0936 20.9944L66.0804 15.4005H73.7203L75.6836 20.9944C75.7866 21.3001 75.8338 21.5824 75.8338 21.8494H79.84C79.6104 21.5277 79.4436 21.2375 79.3489 20.9944Z" fill="#3A4850"/>
</svg>
