<svg width="113" height="24" viewBox="0 0 113 24" fill="none" xmlns="http://www.w3.org/2000/svg">
<path fill-rule="evenodd" clip-rule="evenodd" d="M67.547 1.06472C67.0395 0.798663 66.5683 0.748098 66.3324 0.742427L66.3207 0.741482H66.3192L50.0267 0.753769H50.006H49.9914C49.4373 0.769364 49.007 0.947997 48.7434 1.09544C48.4586 1.24808 47.5298 1.86432 47.5486 3.38411V14.4693L47.5496 14.4948C47.5665 14.742 47.6324 15.2363 47.8796 15.766C48.1738 16.4333 48.8804 17.1464 49.9796 17.1464H63.8435V16.6535C63.8478 16.3208 63.7108 15.9872 63.4768 15.7613C62.9109 15.2405 62.1624 15.2131 61.8428 15.2013C61.7971 15.1999 61.7599 15.1985 61.734 15.1956H61.6926H55.0667C54.8605 15.1956 54.6637 15.1961 54.4768 15.1975C54.2847 15.1985 54.1016 15.1989 53.9298 15.1989H53.8681C53.8003 15.1999 53.7349 15.2004 53.6699 15.2004C52.6093 15.2004 52.0091 15.1063 51.7817 14.905C51.673 14.8185 51.5619 14.6928 51.4696 14.3592C51.3867 14.0529 51.3458 13.596 51.3462 13.001L51.3458 9.55451C51.3448 7.40005 51.3448 4.91809 51.3448 4.17568C51.3331 3.80943 51.5374 3.23762 51.7422 3.06229C52.0044 2.80852 52.3523 2.75748 52.8273 2.75559C52.9577 2.75559 53.0834 2.75984 53.2152 2.76363C53.3522 2.76788 53.4948 2.77166 53.6421 2.7726H62.8187C63.0173 2.7726 63.1929 2.76835 63.3483 2.7641C63.4707 2.76126 63.5804 2.75843 63.6783 2.75843C64.1349 2.76882 64.2832 2.78395 64.6641 3.05237C64.9432 3.32835 65.0275 3.67191 65.0783 4.17095L65.0906 19.4129C65.0906 19.4133 65.0901 19.497 65.0713 19.6326C65.0416 19.8495 64.9578 20.1529 64.8081 20.3566C64.6382 20.5749 64.4597 20.7044 64.0521 20.7134L49.7136 20.7413L49.6911 20.7408L49.6765 20.7413C49.3206 20.747 48.9859 20.7999 48.6822 20.8968C48.3786 20.9969 48.1507 21.1278 47.9638 21.3074C47.7186 21.5385 47.574 21.8811 47.5792 22.2252V22.7176H66.2505L66.2708 22.7162C66.8992 22.6637 67.4947 22.4331 67.9481 22.0692C68.4956 21.634 68.8067 20.9837 68.8025 20.2848V20.2697L68.8063 3.3586C68.8223 2.13983 68.166 1.3752 67.547 1.06472Z" fill="#3A4850"/>
<path fill-rule="evenodd" clip-rule="evenodd" d="M112.546 17.1028L112.459 16.5594C112.364 15.8944 111.866 15.5017 111.431 15.3571C110.96 15.1856 110.478 15.1837 110.219 15.1823C110.158 15.1823 110.103 15.1832 110.056 15.1837L109.966 15.1846C109.499 15.1837 98.7392 15.1837 98.7392 15.1837C98.05 15.1681 97.824 14.9847 97.6828 14.7881C97.5317 14.5745 97.503 14.2296 97.5063 13.9772C97.5053 13.9153 97.5068 13.8558 97.5072 13.7972C97.5086 13.749 97.5091 13.7017 97.5091 13.6559V10.1583L97.51 10.1234V10.1153H107.151L107.142 8.07665L106.814 8.08043L97.5218 8.13242C97.5199 8.08185 97.5176 7.97269 97.5185 7.90133C97.5185 7.6537 97.5171 7.23783 97.5152 6.74683C97.5129 6.0408 97.5091 5.18072 97.5091 4.44539C97.5228 3.57302 97.8109 3.26349 98.1202 3.05839C98.2812 2.95915 98.445 2.91236 98.5533 2.89063C98.6455 2.87172 98.7091 2.86841 98.7364 2.867L98.7505 2.86605H99.1393C100.425 2.86605 104.611 2.867 107.394 2.86747H109.976C110.355 2.86605 110.854 2.84195 111.35 2.67419C111.674 2.5636 111.926 2.41002 112.12 2.20587C112.363 1.95493 112.5 1.60192 112.495 1.23756L112.511 0.933697C111.625 0.946457 110.753 0.937005 109.852 0.93606L104.958 0.92141C101.301 0.91952 97.1537 0.959689 96.0865 0.959689L96.045 0.959216C94.5377 0.959216 94.1526 1.8245 94.0024 2.15814C93.7571 2.67466 93.631 3.2805 93.6277 3.95723C93.6277 4.03095 93.6296 4.08529 93.631 4.11506L93.6319 14.4451L93.6324 14.4611C93.6423 14.7158 93.7002 15.2243 93.9723 15.7664C94.1248 16.0868 94.7424 17.1345 96.271 17.1345H96.311L112.523 17.1302H112.55L112.546 17.1028Z" fill="#3A4850"/>
<path fill-rule="evenodd" clip-rule="evenodd" d="M71.7913 16.8158C72.4076 17.1263 73.0205 17.1325 73.2507 17.1348L89.0904 17.1353C89.3262 17.1325 89.9382 17.1263 90.5549 16.8154C91.1537 16.5304 91.7878 15.814 91.7695 14.66L91.7624 0.752589V0.72896H90.5337C90.0352 0.736521 89.4764 0.953433 88.9981 1.32488C88.4031 1.78989 88.0632 2.47276 88.066 3.19863V14.4464C88.0632 14.6968 88.0034 14.8131 87.945 14.8953C87.8513 15.0267 87.672 15.1254 87.4267 15.1826C87.2083 15.2322 86.9724 15.2389 86.8147 15.2389H75.5061C75.2726 15.2389 74.9436 15.2171 74.7011 15.1136C74.5651 15.0569 74.4672 14.9851 74.4012 14.8948C74.3424 14.8131 74.2826 14.6968 74.2803 14.4459V3.19863C74.2826 2.47276 73.9432 1.78989 73.3486 1.32488C72.8703 0.953433 72.3106 0.736521 71.8139 0.72896H70.5834V0.752589L70.5768 14.6604C70.5589 15.814 71.1925 16.5304 71.7913 16.8158Z" fill="#3A4850"/>
<path fill-rule="evenodd" clip-rule="evenodd" d="M20.4308 0.740962C20.3554 0.740962 20.2914 0.74049 20.2429 0.739545C20.225 0.739545 20.2081 0.739072 20.1954 0.739072H20.1761C20.1102 0.734346 20.0631 0.734346 20.0231 0.734346C18.9333 0.734346 18.1965 1.40068 17.7691 1.95926C17.3431 2.50933 17.0408 3.12982 16.7744 3.67612C16.7231 3.78198 16.6722 3.885 16.6242 3.98282C16.6275 3.97573 16.6346 3.97242 16.6426 3.97148L16.6388 3.97762C16.6058 4.01637 16.4877 4.24273 15.87 5.42464L14.1602 8.6958C13.1792 10.5733 12.1492 12.5435 11.5692 13.655H11.209V14.3464C11.2072 14.3501 11.2043 14.3549 11.2025 14.3587L4.45788 0.751832L4.45176 0.738127H0.0200195L0.0364961 0.772625L7.08613 14.9801C7.45003 15.7078 7.82287 16.2196 8.25879 16.5906C8.75121 17.0131 9.3486 17.2357 9.98601 17.2357H10.003H10.067H10.1023C10.8555 17.2357 11.4388 17.084 11.8874 16.773C12.3553 16.4479 12.6463 15.9904 12.9033 15.5878L12.916 15.5675L18.0883 5.30933C18.2681 4.97239 18.4724 4.83818 18.7229 4.74036C18.9625 4.65057 19.2854 4.60756 19.7364 4.60756H19.7618C19.9026 4.60756 20.0471 4.61134 20.1954 4.61465L20.3423 4.61843C20.7641 4.62127 21.8906 4.62741 21.8911 4.62741L22.3849 4.63072V0.720169L21.8868 0.726313C21.7169 0.729148 20.8836 0.740962 20.4308 0.740962Z" fill="#3A4850"/>
<path fill-rule="evenodd" clip-rule="evenodd" d="M41.5546 13.5759C41.556 14.4024 41.3757 14.7795 41.2237 14.9501C41.0448 15.1538 40.7873 15.2422 40.3627 15.2464H29.3064C28.8822 15.2422 28.6247 15.1538 28.4449 14.9501C28.2938 14.7795 28.113 14.4024 28.1144 13.5759V4.35643C28.113 3.5299 28.2938 3.15278 28.4449 2.98124C28.6247 2.77709 28.8822 2.68872 29.3064 2.68494H40.3631C40.7873 2.68872 41.0448 2.77709 41.2237 2.98124C41.3757 3.15184 41.556 3.52895 41.5546 4.35643V13.5759ZM42.6035 0.736849H27.0661C26.1561 0.736849 25.4801 0.954233 24.9994 1.40223C24.4731 1.89749 24.2076 2.67062 24.2095 3.70083V14.2312C24.2076 15.2614 24.4731 16.0345 24.9994 16.5298C25.4796 16.9778 26.1561 17.1957 27.0661 17.1957H42.6035C43.5139 17.1957 44.19 16.9778 44.6692 16.5298C45.196 16.0355 45.4619 15.2619 45.4596 14.2312V3.70083C45.4619 2.67015 45.196 1.89655 44.6692 1.40223C44.1895 0.954233 43.5135 0.736849 42.6035 0.736849Z" fill="#3A4850"/>
<path fill-rule="evenodd" clip-rule="evenodd" d="M111.581 19.8064C111.247 19.8371 111.003 19.8872 110.81 20.0001C110.615 20.1117 110.498 20.3054 110.461 20.5233C110.451 20.58 110.439 20.6447 110.439 20.717V22.9679H111.591V20.7274C111.591 20.7085 111.592 20.6962 111.594 20.6896C111.594 20.6565 111.692 20.6235 111.86 20.6235H112.427V19.796H111.798C111.725 19.796 111.652 19.8012 111.581 19.8064Z" fill="#3A4850"/>
<path fill-rule="evenodd" clip-rule="evenodd" d="M93.6916 21.7646L92.9426 20.0808C92.8024 19.8327 92.5128 19.7496 92.1777 19.7382C92.0967 19.7392 92.019 19.7519 91.955 19.7609C91.7055 19.8063 91.5096 19.888 91.4141 20.0799L90.6557 21.7665L89.8498 19.7954H88.6794L88.7783 20.0383L89.8455 22.6507C89.9764 22.9144 90.2734 23.0061 90.6218 23.0141C90.7235 23.0141 90.8228 23.0028 90.9184 22.9858C91.1556 22.9409 91.3675 22.8204 91.4654 22.6016L92.1847 20.9778L92.8885 22.5973C92.9779 22.8147 93.1879 22.9394 93.4238 22.9843C93.5245 23.0028 93.6229 23.0141 93.725 23.0141C94.0729 23.0061 94.3709 22.9144 94.5004 22.6545L95.6679 19.7954H94.4971L93.6916 21.7646Z" fill="#3A4850"/>
<path fill-rule="evenodd" clip-rule="evenodd" d="M98.384 20.7949C98.3888 20.7051 98.3996 20.6966 98.433 20.6697C98.4702 20.6427 98.5757 20.6125 98.7512 20.6139L100.059 20.613C100.14 20.613 100.206 20.6172 100.256 20.6243L98.384 21.1333V20.7949ZM98.4547 22.107C98.4358 22.0962 98.4189 22.082 98.3953 22.0125L101.524 21.1619V20.6907C101.526 20.3973 101.354 20.1473 101.096 20.0069C100.838 19.8628 100.496 19.7971 100.085 19.7957H98.8939C98.3709 19.7971 97.9754 19.8628 97.6859 20.0216C97.3936 20.1766 97.2269 20.462 97.2326 20.7848V22.0517C97.2302 22.3083 97.3766 22.5149 97.5682 22.6571C97.8102 22.9 98.3836 22.9676 98.707 22.9676H101.577V22.1444H98.7602C98.5756 22.1467 98.4806 22.125 98.4547 22.107Z" fill="#3A4850"/>
<path fill-rule="evenodd" clip-rule="evenodd" d="M71.3636 20.7949C71.3688 20.7051 71.3796 20.6966 71.413 20.6697C71.4507 20.6427 71.5552 20.6125 71.7308 20.6139L73.0386 20.613C73.12 20.613 73.1859 20.6172 73.2368 20.6243L71.3636 21.1333V20.7949ZM71.4352 22.107C71.4163 22.0962 71.3994 22.082 71.3749 22.0125L74.5031 21.1619V20.6907C74.5078 20.3973 74.3341 20.1473 74.0761 20.0069C73.8186 19.8628 73.4754 19.7971 73.0659 19.7957H71.8734C71.3514 19.7971 70.955 19.8628 70.6655 20.0216C70.3736 20.1766 70.2065 20.462 70.2131 20.7848V22.0517C70.2103 22.3083 70.3552 22.5144 70.5478 22.6571L70.5487 22.658C70.8444 22.8825 71.204 22.9676 71.687 22.9676H74.5563V22.1444H71.7402C71.5562 22.1467 71.4601 22.125 71.4352 22.107Z" fill="#3A4850"/>
<path fill-rule="evenodd" clip-rule="evenodd" d="M106.953 22.0305C106.921 22.0891 106.916 22.09 106.87 22.1098C106.816 22.1306 106.688 22.1458 106.471 22.1443H105.386C105.169 22.1458 105.041 22.1306 104.986 22.1098C104.938 22.0891 104.934 22.0891 104.903 22.0319V21.8532C104.929 21.8041 104.942 21.7932 104.988 21.7701C105.039 21.746 105.141 21.7256 105.307 21.7162H105.376H106.569C106.723 21.7256 106.824 21.7464 106.872 21.7691C106.914 21.7918 106.926 21.8022 106.953 21.8532V22.0305ZM108.08 20.4429L108.075 20.431C107.896 19.9599 107.418 19.7888 106.774 19.7954H103.752V20.612L106.826 20.6234C106.904 20.6262 106.921 20.6352 106.953 20.6584V20.8928L105.154 20.8942C104.757 20.8942 104.417 20.9736 104.161 21.1498C103.903 21.3242 103.748 21.613 103.752 21.9494V22.0354C103.748 22.3289 103.918 22.5813 104.171 22.7315C104.424 22.8856 104.762 22.9631 105.162 22.9674H106.768C107.199 22.9674 107.589 22.8402 107.881 22.5567C108.023 22.4258 108.106 22.2519 108.104 22.0728V20.6182C108.104 20.552 108.091 20.4991 108.082 20.4566L108.08 20.4429Z" fill="#3A4850"/>
<path fill-rule="evenodd" clip-rule="evenodd" d="M79.6571 22.0263C79.65 22.0816 79.6576 22.066 79.618 22.0953C79.5747 22.1203 79.4589 22.1463 79.2814 22.1449H78.0363C77.8809 22.1454 77.7783 22.1236 77.7251 22.0976C77.6733 22.0698 77.662 22.0542 77.6437 22.0036L77.6352 21.9974L77.6423 21.997C77.6423 21.9918 77.6418 21.9847 77.6418 21.9743V19.7967H76.4908V22.1042C76.4875 22.3722 76.656 22.5971 76.914 22.746C77.1786 22.9005 77.4798 22.9686 77.823 22.9681H79.6552C79.6519 22.996 79.6467 22.9955 79.6312 23.0092C79.611 23.0277 79.5422 23.0541 79.4269 23.0655H76.4908V23.8887H79.3704C79.8223 23.8877 80.2022 23.7923 80.4711 23.5947C80.6805 23.452 80.8161 23.2143 80.8076 22.9161V19.7967H79.6571V22.0263Z" fill="#3A4850"/>
<path fill-rule="evenodd" clip-rule="evenodd" d="M84.0643 20.7948C84.069 20.705 84.0799 20.6965 84.1133 20.6695C84.1514 20.6426 84.2559 20.6123 84.4315 20.6138H85.7393C85.8202 20.6128 85.8871 20.6171 85.9365 20.6242L84.0643 21.1331V20.7948ZM84.1359 22.107C84.1161 22.0962 84.0996 22.082 84.0756 22.0125L87.2038 21.1619V20.6907C87.2076 20.3973 87.0348 20.1473 86.7764 20.0069C86.5184 19.8628 86.1762 19.7971 85.7657 19.7957H84.5737C84.0516 19.7971 83.6557 19.8628 83.3662 20.0216C83.0743 20.1766 82.9067 20.462 82.9138 20.7848V22.0517C82.9105 22.3083 83.0578 22.5149 83.2485 22.6571L83.2494 22.658C83.5446 22.8825 83.9043 22.9676 84.3877 22.9676H87.2575V22.1444H84.4405C84.2569 22.1467 84.1613 22.125 84.1359 22.107Z" fill="#3A4850"/>
</svg>
